<svg version="1.2" xmlns="http://www.w3.org/2000/svg" viewBox="0 0 1549 1408" width="1549" height="1408">
	<title>moutai-logo-vector-svg</title>
	<style>
		.s0 { fill: #ffffff } 
		.s1 { fill: #172b7b } 
		.s2 { fill: #e60012 } 
		.s3 { fill: none;stroke: #e60012;stroke-width: 32.4 } 
	</style>
	<g id="Layer">
		<ellipse id="Layer" class="s0" cx="774.8" cy="704.3" rx="712.4" ry="703.6"/>
		<path id="Layer" class="s1" d="m1482.7 783.1c-39.7 351.5-341.4 624.5-707.9 624.5-366.5 0-668.3-273.3-708-624.5 55.5 0 110.7-35.8 168.9-79.7 69.8-52.6 146.4-115.1 259.8-115.1 146.1 0 279.3 127.2 279.3 127.2 0 0 133.1-127.2 279.2-127.2 113.7 0 190 62.5 259.8 115.1 58.3 44.2 113.2 79.7 168.9 79.7z"/>
		<path id="Layer" class="s2" d="m1438.5 448.5c-117.1-0.3-158.7-42.8-209.4-76.6-45.6-30.4-102.5-53.8-195.9-53.8-154.8 0-258.4 101.9-258.4 101.9 0 0-103.6-101.9-258.4-101.9-93.5 0-150.3 23.4-195.9 53.8-50.7 33.8-92.4 76.3-209.5 76.6 103.6-262.1 361.7-448.1 664.1-448.1 301.7 0.3 559.8 186 663.4 448.1z"/>
		<path id="Layer" class="s0" d="m890.2 189l-29.6 20 10.5-34.4-28.8-21.7h36.9l11-34.9 9 34.9h38.8l-28.4 20.9 10.1 35.2z"/>
		<path id="Layer" class="s0" d="m1091.2 153.8l-22.3 15.2 7.6-26.2-21.6-16.6h28.1l8.2-26.4 6.7 26.4h29.6l-21.4 16.1 7.6 26.7z"/>
		<path id="Layer" class="s0" d="m748.9 329.4l-22.3 15.2 7.9-26.2-21.6-16.6h27.8l8.2-26.1 7 26.1h29.3l-21.4 16.1 7.6 26.7z"/>
		<path id="Layer" class="s0" d="m615.5 100.3l-22.3 14.9 7.9-25.9-22-16.6h28.2l8.2-26.4 6.7 26.4h29.6l-21.4 16.1 7.6 26.4z"/>
		<path id="Layer" class="s0" d="m413.4 255.4l-22.6 15.2 7.9-25.9-21.7-16.6h28.2l8.2-26.5 6.7 26.5h29.6l-21.4 15.8 7.6 26.7z"/>
		<path id="Layer" class="s0" d="m571.3 1025.4c-24.5-11.3-41.7-36-41.7-65.3 0-40 31.8-71.5 70.7-71.5 26.4 0 49.5 14.7 61.6 36.6-9-3.9-18.6-6.2-29-6.2-38.8 0-70.4 31.3-70.4 71.5 0 12.7 3.1 24.8 8.8 34.9z"/>
		<path id="Layer" class="s0" d="m778.7 1029.1c-28.1 0-41.4-14.7-41.4-44.2v-98.5l41.4 30.6z"/>
		<path id="Layer" class="s0" d="m792.2 1039.5c27.9 0 41.1-14.7 41.1-44.2v-111.2l42.8 31.3v81c0 49.8-21.1 74.6-64.4 74.6-28.5 0-47.1-10.4-56.6-31.8h37.1z"/>
		<path id="Layer" class="s0" d="m922.3 893.1v27.9h-23.1l-20.5-27.9z"/>
		<path id="Layer" class="s0" d="m936.6 1053.8v-160.7h49.3l22.8 31h-41.1v153.1z"/>
		<path id="Layer" class="s0" d="m322.7 1050.7l34.9-131.1 22 54.9-27.1 98.7z"/>
		<path id="Layer" class="s0" d="m399.6 1042.3l49.5-140.2 11.5 80.5-30.1 82.8z"/>
		<path id="Layer" class="s0" d="m497.8 912.3l20.8 160.9-41.9-30.9-20.6-161z"/>
		<path id="Layer" class="s0" d="m401 915.6l19.1 47.3-16.6 47.3-50.4-128.9z"/>
		<path id="Layer" class="s0" d="m596.9 1044.5c23.3 0 44.7-8.7 61.1-24.7 16.3-15.8 25.3-36.9 25.3-59.7 0-15.5-4.2-30.7-12.4-43.9 6.8 3.7 13.2 8.4 18.9 14.1 16 15.5 24.5 36.3 24.5 58.2 0 22-8.8 42.5-24.5 57.7-16.1 15.5-36.6 23.9-59.1 23.9-22.6 0-43.1-8.4-58.9-23.9-2.2-2.2-4.5-4.8-6.4-7.3 10.1 4 20.8 5.9 31.5 5.6z"/>
		<path id="Layer" class="s0" d="m1059.9 885.5l44.8 24.2 66.4 163.5-45-24.2z"/>
		<path id="Layer" class="s0" d="m995.7 1046.8l29-56.3h67l13.8 32.6h-52.3l-23.4 48.7z"/>
		<path id="Layer" class="s0" d="m1058.2 906.9l19.2 46.7-6.8 19.5h-36.8z"/>
		<path id="Layer" class="s0" d="m1182.1 1048.8v-163.3l38.8 27.3v162.4z"/>
	</g>
	<g id="Layer">
		<path id="Layer" class="s3" d="m488.5 364.6c-162.7 3.6-237.6 158.7-396.3 137l-88.7-18.2"/>
		<path id="Layer" class="s3" d="m343.8 471.5c0 0-49.8 42.2-121 72.4-71.2 30.4-156.2 25.6-156.2 25.6"/>
		<path id="Layer" class="s3" d="m265 569.2c0 0-39.1 36.6-88.7 55.4-50.1 19.5-121 19.5-121 19.5"/>
		<path id="Layer" class="s3" d="m197.2 666.9c0 0-21.7 20.5-59.4 30.1-37.7 9.8-82.2 7-82.2 7"/>
		<path id="Layer" class="s3" d="m1545.8 483.4l-88.7 18.2c-158.8 21.7-233.6-133.4-396.3-137"/>
		<path id="Layer" class="s3" d="m1482.7 569.5c0 0-85 4.8-156.2-25.6-71.2-30.2-121-72.4-121-72.4"/>
		<path id="Layer" class="s3" d="m1494 644.1c0 0-71 0-121.1-19.5-49.5-18.8-88.6-55.4-88.6-55.4"/>
		<path id="Layer" class="s3" d="m1494 704c0 0-44.5 2.8-82.2-7-37.7-9.6-59.4-30.1-59.4-30.1"/>
	</g>
</svg>