<svg version="1.2" baseProfile="tiny-ps" xmlns="http://www.w3.org/2000/svg" viewBox="0 0 1600 530" width="1600" height="530">
	<title>Industrial_and_Commercial_Bank_of_China_logo-svg</title>
	<style>
		tspan { white-space:pre }
		.shp0 { fill: #cb0202 } 
		.shp1 { fill: #201e1d } 
	</style>
	<g id="layer1">
		<g id="layer1-0">
			<g id="g3518">
				<path id="path3520" fill-rule="evenodd" class="shp0" d="M1070.8 264.49C1070.8 118.36 1189.16 0 1335.35 0C1481.5 0 1599.95 118.36 1599.95 264.49C1599.95 410.62 1481.5 529.02 1335.35 529.02C1189.16 529.02 1070.8 410.62 1070.8 264.49ZM1111.76 264.49C1111.76 387.94 1211.87 488.07 1335.35 488.07C1458.8 488.07 1558.93 387.94 1558.93 264.49C1558.93 141.08 1458.8 40.88 1335.35 40.88C1211.87 40.88 1111.76 141.08 1111.76 264.49ZM1437.35 366.05L1437.35 325.41L1356.08 325.41L1356.08 203.46L1437.35 203.46L1437.35 162.73L1346.18 162.73L1346.18 122.06L1478.05 122.06L1478.05 244.12L1396.95 244.12L1396.95 284.76L1478.05 284.76L1478.05 406.68L1346.18 406.68L1346.18 366.05L1437.35 366.05ZM1234.27 162.62L1234.27 203.26L1315.54 203.26L1315.54 325.32L1234.27 325.32L1234.27 365.95L1325.67 365.95L1325.67 406.61L1193.64 406.61L1193.64 284.64L1274.54 284.64L1274.54 243.95L1193.64 243.95L1193.64 121.97L1325.67 121.97L1325.67 162.62L1234.27 162.62Z" />
			</g>
		</g>
		<g id="g2931">
			<path id="path2933" fill-rule="evenodd" class="shp1" d="M391.2 407.47L391.2 121.71L539.51 121.81C568.13 121.81 591.91 129.8 608.21 144.97C623.08 158.78 631.25 178.32 631.25 200.01C631.25 239.48 614.9 252.72 602.55 259.24L601.41 259.85L602.61 260.35C630 272.68 643.87 295.84 643.87 329.15C643.87 344.39 640.28 366.03 623.23 382.87C606.64 399.25 580.94 407.55 546.89 407.55M445.1 234.62L535.16 234.62C542.66 234.62 553.67 234.19 562.49 230.04C572.27 225.44 577.23 217.29 577.23 205.77C577.23 174.33 550.75 174.33 534.94 174.33L445.1 174.33L445.1 234.62ZM445.1 287.09L444.75 354.25L444.75 354.85L543.8 354.85C555.96 354.85 572.57 354.86 582.2 345.19C587.37 339.95 590.01 332.35 590.01 322.64C590.01 310.45 585.08 301.03 575.45 294.66C565.11 287.87 552.21 286.43 543.24 286.43L445.1 286.43L445.1 287.09L445.1 287.09Z" />
			<path id="path2935" fill-rule="evenodd" class="shp1" d="M0.66 407.55L57.16 407.55L57.16 121.8L0.66 121.8L0.66 407.55Z" />
			<path id="path2937" fill-rule="evenodd" class="shp1" d="M103.03 262.24C103.03 289.87 107.67 312.68 117.22 331.96C125.2 348.02 136.44 361.56 152.67 374.59C177.93 394.83 213.49 405.11 258.38 405.11L335.71 405.11L335.71 351.18L262.67 351.18C222.03 351.18 192.57 341.03 175.11 321.01C162.7 306.81 156.33 287.63 156.16 264.04C155.94 238.74 163.01 218.62 177.12 204.29C194.78 186.36 223.56 177.28 262.67 177.28L335.71 177.28L335.71 123.79L261.08 123.79C235.94 123.79 214.88 126.33 196.62 131.48C178.39 136.65 163.41 144.36 150.86 155.02C133.01 170.2 103.03 204.29 103.03 262.24" />
			<path id="path2939" fill-rule="evenodd" class="shp1" d="M677.96 262.24C677.96 289.81 682.71 314.16 692.15 334.5C700.33 352.13 712.23 367.32 727.59 379.62C751.32 398.7 784.92 407.56 833.3 407.56L914.82 407.56L914.82 353.64L837.6 353.64C797.04 353.64 767.57 343.05 750.01 322.19C737.61 307.5 731.24 287.94 731.09 264.04C730.85 238.04 738.17 217.3 752.78 202.48C770.54 184.41 799.06 175.26 837.6 175.26L914.82 175.26L914.82 121.81L835.97 121.81C810.86 121.81 789.81 124.33 771.53 129.49C753.31 134.65 738.33 142.32 725.82 152.99C711.39 165.22 677.96 200.35 677.96 262.24" />
		</g>
	</g>
</svg>