<svg version="1.2" baseProfile="tiny-ps" xmlns="http://www.w3.org/2000/svg" viewBox="0 0 1591 623" width="1591" height="623">
	<title>logo-new-svg</title>
	<defs>
		<clipPath clipPathUnits="userSpaceOnUse" id="cp1">
			<path d="M-68.88 -103.26L1656.46 -103.26L1656.46 760.79L-68.88 760.79L-68.88 -103.26Z" />
		</clipPath>
	</defs>
	<style>
		tspan { white-space:pre }
		.shp0 { fill: #black }
	</style>
	<g id="Clip-Path" clip-path="url(#cp1)">
		<g id="Layer">
			<path id="Layer" fill-rule="evenodd" class="shp0" d="M1909.5 15.02C1914.11 15.02 1917.95 18.86 1917.95 23.47L1917.95 547.27C1917.95 549.58 1919.48 551.11 1921.78 551.11L2082.04 550.34L2121.15 622.54L1843.56 622.54C1838.96 622.54 1835.13 618.7 1835.13 614.09L1835.13 23.47C1835.13 18.86 1838.96 15.02 1843.56 15.02L1909.5 15.02ZM1432.55 333.76L1590.51 622.54L1102.82 622.54L944.09 333.76L1432.55 333.76ZM2746.1 18.1C2751.47 18.1 2755.3 20.4 2755.3 25.78L2885.66 613.32L2885.66 614.86C2885.66 620.24 2883.36 622.54 2878 622.54L2810.51 622.54C2806.68 622.54 2803.61 620.24 2802.08 614.86L2782.91 515.78C2782.91 515.02 2782.14 513.48 2781.38 513.48C2780.61 512.71 2779.84 512.71 2778.31 512.71L2639.52 512.71C2637.98 512.71 2637.21 512.71 2636.45 513.48C2635.68 514.25 2634.92 515.02 2634.92 515.78L2614.98 614.86C2614.21 620.24 2611.15 622.54 2605.78 622.54L2539.83 622.54C2536.76 622.54 2534.47 621.77 2533.69 620.24C2532.16 618.7 2532.16 616.4 2532.16 613.32L2660.99 25.78C2661.75 20.4 2665.59 18.1 2670.19 18.1L2746.1 18.1ZM3811.2 169.4C3856.44 169.4 3891.74 182.45 3917.79 207.8C3943.88 233.15 3956.89 266.17 3956.89 306.87L3956.89 486.6C3956.89 528.07 3943.88 561.1 3917.79 585.67C3891.74 610.25 3856.44 622.54 3811.2 622.54C3766.72 622.54 3730.7 610.25 3704.61 585.67C3678.56 561.1 3665.51 528.07 3665.51 486.6L3665.51 306.87C3665.51 266.17 3678.56 233.15 3705.4 207.8C3732.21 182.45 3767.52 169.4 3811.2 169.4ZM2246.14 139.45C2251.51 139.45 2254.58 142.52 2254.58 147.89L2254.58 614.09C2254.58 619.47 2252.27 622.54 2246.14 622.54L2180.19 622.54C2174.83 622.54 2171.76 620.24 2171.76 614.09L2171.76 147.89C2171.76 142.52 2174.06 139.45 2180.19 139.45L2246.14 139.45ZM454.09 2.73C459.46 12.72 566.81 208.57 572.19 217.78C589.06 249.27 606.7 276.16 635.07 299.2C671.87 329.15 730.14 334.52 786.12 334.52L824.14 334.51C841.41 334.47 831.06 334.31 883.51 333.76L962.49 477.77L1041.48 621.77L638.9 621.77C587.52 621.77 536.91 621 486.3 608.72C434.92 597.19 391.99 576.46 350.57 545.73C266.22 483.52 218.68 400.58 169.61 311.49L84.87 157.11L0.14 2.73L454.09 2.73ZM3035.2 175.54C3040.56 175.54 3043.63 178.61 3043.63 183.99L3043.63 475.08C3043.63 525 3063.56 549.57 3102.67 549.57C3122.61 549.57 3137.18 542.66 3147.91 528.07C3158.65 514.25 3164.02 494.28 3164.02 469.7L3164.02 183.22C3164.02 179.38 3167.08 176.31 3172.45 176.31L3238.41 176.31C3243.76 176.31 3246.83 179.38 3246.83 184.76L3246.83 607.18C3246.83 613.32 3243.76 615.62 3238.41 615.62L3172.45 615.62C3166.32 615.62 3164.02 612.55 3164.02 607.18L3164.02 581.83C3164.02 580.3 3163.25 579.53 3162.48 579.53C3161.72 579.53 3160.95 580.3 3159.42 581.06C3141.78 607.95 3114.17 621.77 3076.6 621.77C3042.09 621.77 3014.49 611.02 2993.02 590.28C2971.54 569.54 2960.81 537.29 2960.81 493.51L2960.81 183.99C2960.81 178.61 2963.88 175.54 2969.25 175.54L3035.2 175.54ZM3472.28 71.86C3477.66 71.86 3480.73 74.93 3480.73 80.31L3480.73 177.85C3480.73 180.15 3481.49 181.69 3484.56 181.69L3545.12 181.69C3551.26 181.69 3553.57 184.76 3553.57 190.14L3553.57 233.15C3554.33 240.06 3551.26 243.13 3545.88 243.13L3485.32 243.13C3483.01 243.13 3481.49 244.67 3481.49 246.97L3481.49 489.67C3481.49 512.71 3485.32 528.84 3493.74 537.29C3501.43 546.5 3514.44 550.34 3532.08 549.58L3539.77 549.58C3545.12 549.58 3548.19 552.65 3548.19 558.02L3548.19 613.32C3548.19 619.47 3545.12 621.77 3539.77 621.77L3512.92 621.77C3476.11 621.77 3448.5 614.86 3429.35 600.27C3410.92 585.67 3400.95 558.79 3400.95 518.09L3400.95 245.43C3400.95 243.13 3399.43 241.59 3397.91 241.59L3364.16 241.59C3358.02 241.59 3355.72 238.52 3355.72 233.15L3355.72 190.14C3355.72 184.76 3358.79 181.69 3364.16 181.69L3397.91 181.69C3400.19 181.69 3400.95 180.92 3400.95 177.85L3400.95 80.31C3400.95 74.93 3404.02 71.86 3409.4 71.86L3472.28 71.86ZM3811.2 240.06C3792.81 240.06 3777.45 246.97 3765.96 260.03C3754.47 273.08 3748.33 289.98 3748.33 310.72L3748.33 479.68C3748.33 500.42 3754.47 517.32 3765.96 530.38C3777.45 543.43 3792.81 549.57 3811.2 549.57C3829.63 550.34 3844.95 543.43 3856.44 530.38C3867.96 517.32 3874.07 500.42 3874.07 479.68L3874.07 310.72C3874.07 289.98 3867.96 273.08 3856.44 260.03C3844.95 246.97 3829.63 240.06 3811.2 240.06ZM2710.83 144.82C2710.06 144.82 2709.3 145.59 2709.3 147.13L2650.25 442.82C2650.25 445.13 2651.02 446.66 2652.55 446.66L2766.81 446.66C2768.34 446.66 2769.11 445.89 2769.11 442.82L2712.36 147.13C2711.6 145.59 2710.83 144.82 2710.83 144.82ZM1250.04 0.43L1407.24 288.44L918.79 288.44L761.59 0.43L1250.04 0.43ZM2246.14 15.02C2251.51 15.02 2254.58 18.09 2254.58 23.47L2254.58 89.52C2254.58 94.9 2252.27 97.97 2246.14 97.97L2180.19 97.97C2174.83 97.97 2171.76 95.67 2171.76 89.52L2171.76 23.47C2171.76 18.09 2174.06 15.02 2180.19 15.02L2246.14 15.02Z" />
		</g>
	</g>
</svg>