<svg version="1.2" xmlns="http://www.w3.org/2000/svg" viewBox="0 0 1505 360" width="1505" height="360">
	<title>Wanhua_Annual_Report_of_2021-1-pdf-svg</title>
	<defs>
		<clipPath clipPathUnits="userSpaceOnUse" id="cp1">
			<path d="m-4095.57-804.99h5876.9v8306.22h-5876.9z"/>
		</clipPath>
	</defs>
	<style>
		.s0 { fill: #black }
	</style>
	<g id="Clip-Path: Page 1" clip-path="url(#cp1)">
		<g id="Page 1">
			<path id="Path 4" fill-rule="evenodd" class="s0" d="m400.2 152.9c0 0-8.4 4.9-21.2 25.1-4 5-8.9 13.9-12.9 22.2-18.7 39-39.9 92.8-90.3 128.8-39.9 28.6-88.3 34.5-122.8 28.6 55.2-3.5 102.1-34 135.7-95.2 3.4-5.9 7.9-14.3 11.8-22.7h4.4c13.9 0 25.7-10.8 25.7-25.2 0-6.9-3.4-14.3-8.4-18.7 2.5-4.9 4.5-9.4 5.9-11.3 9.4-19.8 25.2-31.6 44-31.6zm122.3 0h-48.3l-30.6 93.7c-2.5 9.4-3.5 16.3-3.5 22.7 0 9.9 3 16.8 9.9 21.2 6.4 4 16.3 5.9 28.6 5.9h101.2c8.4 0 15.3-0.5 22.7-2.4 6.4-1.5 12.8-5 18.2-8.4 5.9-4 10.4-9.4 14.8-14.8 4-5.4 7.4-11.9 9.9-18.8l31.6-99.1h-47.9l-36 112c-1 2.4-3 4.4-4.9 6.4-2 1.5-4 2.4-6 2.4-1.9 0-4.4 0.5-6.9 0.5-2.9 0-4.4-0.5-6.4-0.5-2 0-3.4-0.9-4.4-2.4-1.5-2.5-1-6.4 0-8.9 11.3-37 23.7-73 35-109.5h-47.4l-1.9 4.9-33.1 101.1q-1 3-2 6c-1 2.4-2.4 4.4-4.4 6.4-2 1.5-4 2.4-5.9 2.4-2 0-4.5 0.5-6.9 0.5-2.5 0-4.5-0.5-6.5-0.5-1.9 0-3.4-0.9-4.4-2.4-1.5-2.5-0.5-6.9 0-9.9zm751.5 140.6c6.4-1.5 12.8-4.5 18.8-8.4q8.8-5.9 14.8-14.8c3.9-5.4 7.4-11.8 9.8-18.7l32.1-99.2h-48.3l-33.6 103.1c-0.5 2.5-2 4.9-2.5 7.9q-2.9 5.4-7.9 9.4-3.7 3.7-8.8 4.4c-3 1-6.5 1-10.4 1-4.4 0-7.4 0-10.9-1-3.4-0.5-4.9-2-6.4-4.4-1.5-1-1.5-3-1.5-6 0-2.4 0-4.9 1.5-8.3l34.1-106.1h-47.4l-31.1 94.2c-2.5 8.9-3.9 15.8-3.9 22.2 0 9.9 3.4 16.8 10.3 21.2q10.4 5.9 29.1 5.9h40c8.4 0 15.3-0.4 22.2-2.4zm-552.6-49.8c1.9-6.5 7.9-9.9 15.3-9.9h24.1c5 0 6.4 1 7.4 2.5 1 0.9 1 2.4-0.5 6.4l-17.2 53.2h48.3l30.1-93.7c3.5-8.4 4.5-16.2 4.5-22.2 0-10.3-4-17.2-10.4-21.2-6.9-4.4-16.8-6.4-29.1-6.4h-40.5c-7.4 0-15.3 0.5-21.7 2.5-7.4 2-13.8 4.4-19.2 8.4-5.5 3.9-10.4 8.8-14.8 15.7-3.5 5-6.4 10.9-9.4 17.8l-32.1 99.1h48.4zm36-72.5c2.5 0 6.4-0.5 10.4-0.5 3.9 0 7.9 0.5 10.3 0.5 3 0.5 5.9 2 6.9 4.5 0.5 2 1.5 3.9 1.5 5.9 0 2.5-1 4.9-1.5 8.9l-4.9 15.8c-2 6.4-3.5 8.8-9.9 9.3h-31.5c-3-0.5-5-1-5-1.9-1-1-1.5-3 0-6.9l4-12.4c0.5-2.9 1.4-5.9 2.9-8.4 2-4.4 4-7.9 6.9-10.3 3.5-2.5 6.9-4 9.9-4.5zm255.6-18.7h-47.9l-29.1 90.8c-1.5 2.9-5.4 3.4-5.9 0l-10.8-90.8h-48.4l-46.4 143.5h47.4l30.1-90.7c0.5-2.5 4.4-2.5 4.9 0l11.9 90.7h47.8zm-20.2 143.6h47.4l17.7-53.3c1.5-5.9 7.4-8.4 14.8-8.9h24.2c5.4 0 6.4 1 7.4 2.5 0.5 0.5 1 2 0.5 4.4l-18.3 55.3h48.4l46.4-143.6h-48.4l-17.2 53.3c-2 6.4-3 9.4-9.9 9.9h-30.1c-4.5 0-5.9-1.5-6.4-2.5-0.5-1-1.5-2.5 0-6.4l17.2-54.3h-47.3zm400.2-51.8c1.4-6.4 7.4-10.3 15.3-10.3h23.6c5.5 0 7.4 1 7.9 2.4 0.5 1.5 0.5 2.5-0.5 6.5l-16.7 53.2h47.3l30.6-93.7c3-8.4 4.5-16.3 4.5-22.2 0-10.3-4-17.2-10.4-21.2-6.9-4.4-16.8-6.4-29.1-6.4h-40.5c-7.9 0-15.3 0.5-22.2 2.5-6.9 1.9-13.3 4.9-18.2 8.3-6 4-11.4 9.4-14.8 15.8-3.5 5-6.9 10.9-9.4 17.8l-32.1 99.1h47.9zm58.2-38.4c-2 6.4-3 8.8-9.4 9.3h-31.5c-3.5-0.5-4.5-1-5.5-1.9-0.5-1-1-3 0-6.9l4-12.4c1.5-2.9 1.9-5.4 3.4-8.4 2-4.4 4.5-7.4 6.9-10.3 3.5-2.5 6.4-3.5 9.9-4.5 2.5 0 6.4-0.5 10.4-0.5 3.4 0 7.4 0.5 9.8 0.5 3.5 1 6 2 7.4 4.5 0.5 1.9 1 3.9 1 5.9 0 2.5-0.5 5.4-1 8.9zm-1413.7-18.3c0-10.1-8.3-18.2-18.5-18.2-10.2 0-18.5 8.1-18.5 18.2 0 10.1 8.3 18.3 18.5 18.3 10.2 0 18.5-8.2 18.5-18.3zm240.3 64.6c2.5-5.4 5.5-12.8 9.4-20.2-4.4-4.4-7.4-11.3-7.4-18.2 0-14.3 11.4-25.2 25.2-25.2h2.9c2.5-5.9 5.9-11.3 8.4-16.8 6.9-12.3 18.3-19.7 18.3-19.7h-36.5c-16.8 0-34.6 10.9-45.4 34-4 8.9-17.8 40-25.2 54.8-27.6 57.7-63.7 82.9-116 82.9-18.2 0-35-3.5-49.8-10.9 34 33.1 70.6 35 91.8 33.5 59.7-3.9 104.1-55.2 124.3-94.2zm45.4-38.4c0-10.4-8.2-18.8-18.5-18.8-10.2 0-18.5 8.4-18.5 18.8 0 10.3 8.3 18.7 18.5 18.7 10.3 0 18.5-8.4 18.5-18.7zm-110 19.2c6.9-14.8 12.8-26.1 16.8-37 14.3-33.5 23.6-39.5 29.6-43.9h-52.8c-23.7 0-39.5 17.3-46.9 35.5q-5.9 13.3-13.8 28.6c-27.7 53.8-96.7 41-112.5-6.9-4 2.5-8.9 4.5-14.3 4.5-4 0-7.9-1.5-10.4-2.5 1.5 10.9 3.9 21.7 7.4 31.6 10.9 27.6 36 67 95.2 67 32.6 0 70.6-12.3 101.7-76.9zm-179.1-66.1c5.4-14.8 16.7-28.6 35-36 30.1-12.8 70.1-9.4 112-4.4 32.1 3.4 61.7-1 88.8-24.2 40.5-34 56.8-101.6 56.8-101.6 0 0-14.3 15.3-50.4 20.7-17.2 2.5-40.4 1-61.6-1.5-48.4-5.9-88.4 1.5-121.9 21.2-61.7 37-79.5 90.8-83.9 123.3 3.5-1.4 6.4-1.9 10.4-1.9 5.4 0 10.3 1.9 14.8 4.4z"/>
		</g>
	</g>
</svg>